<svg width="794" height="260" viewBox="0 0 794 260" fill="none" xmlns="http://www.w3.org/2000/svg">
<rect width="794" height="260" fill="white"/>
<path d="M35 192.513C35 140.944 76.8614 99.1391 128.5 99.1391C180.139 99.1391 222 140.944 222 192.513V213.087C222 217.457 218.452 221 214.076 221H174.345C172.632 221 171.288 219.546 171.288 217.835V187.765C171.288 164.166 152.131 145.035 128.5 145.035C104.869 145.035 85.7119 164.166 85.7119 187.765V217.835C85.7119 219.546 84.3684 221 82.6552 221H42.9237C38.5476 221 35 217.457 35 213.087V192.513Z" fill="url(#paint0_linear_27_463)"/>
<path d="M35 186.183C35 149.58 56.0892 117.896 86.795 102.589V46.913C86.795 42.5428 83.2474 39 78.8712 39H42.9237C38.5476 39 35 42.5428 35 46.913V186.183Z" fill="url(#paint1_linear_27_463)"/>
<path d="M169.869 102.422V46.913C169.869 42.5428 173.416 39 177.792 39H214.076C218.452 39 222 42.5428 222 46.913V186.135C221.981 149.419 200.743 117.659 169.869 102.422Z" fill="url(#paint2_linear_27_463)"/>
<path d="M315.768 39V153.526H301.455V103.421H272.829V153.526H258.516V53.3158C258.516 51.1207 259.088 49.1165 260.233 47.3032C261.474 45.3944 263.048 43.9628 264.956 43.0084L272.829 39V89.1053H301.455V53.3158C301.455 51.1207 302.028 49.1165 303.173 47.3032C304.413 45.3944 305.988 43.9628 307.896 43.0084L315.768 39Z" fill="url(#paint3_linear_27_463)"/>
<path d="M363.002 89.1053H384.472C386.476 89.1053 388.146 88.4372 389.481 87.101C390.913 85.6695 391.628 83.9516 391.628 81.9474V60.4737C391.628 58.4695 390.913 56.7993 389.481 55.4632C388.146 54.0316 386.476 53.3158 384.472 53.3158H363.002V89.1053ZM405.942 81.9474C405.942 84.7151 405.464 87.3396 404.51 89.8211C403.556 92.207 402.22 94.3544 400.503 96.2632C402.22 98.1719 403.556 100.367 404.51 102.848C405.464 105.234 405.942 107.811 405.942 110.579V153.526H391.628V110.579C391.628 108.575 390.913 106.905 389.481 105.568C388.146 104.137 386.476 103.421 384.472 103.421H363.002V153.526H348.689V39H384.472C387.43 39 390.197 39.5726 392.773 40.7179C395.445 41.8632 397.735 43.3902 399.644 45.2989C401.552 47.2077 403.079 49.4982 404.224 52.1705C405.369 54.7474 405.942 57.5151 405.942 60.4737V81.9474Z" fill="url(#paint4_linear_27_463)"/>
<path d="M553.626 104.28C552.672 106.189 551.24 107.716 549.332 108.861C547.519 110.006 545.563 110.579 543.464 110.579H500.381L504.389 102.562C505.343 100.653 506.726 99.1263 508.539 97.9811C510.448 96.8358 512.499 96.2632 514.694 96.2632H557.634L553.626 104.28Z" fill="url(#paint5_linear_27_463)"/>
<path d="M653.504 53.3158C653.504 51.1207 654.077 49.1165 655.222 47.3032C656.462 45.3944 658.037 43.9628 659.945 43.0084L667.817 39V153.526H653.504V53.3158Z" fill="url(#paint6_linear_27_463)"/>
<path d="M759.383 39L755.375 46.8737C754.421 48.7825 752.99 50.3572 751.081 51.5979C749.268 52.7432 747.264 53.3158 745.07 53.3158H737.913V153.526H723.6V53.3158H702.13L706.138 45.2989C707.092 43.3902 708.476 41.8632 710.289 40.7179C712.197 39.5726 714.249 39 716.443 39H759.383Z" fill="url(#paint7_linear_27_463)"/>
<path d="M258.886 217.122C259.335 216.224 259.986 215.505 260.839 214.966C261.737 214.427 262.703 214.158 263.736 214.158H273.839C274.782 214.158 275.568 213.844 276.197 213.215C276.87 212.541 277.207 211.733 277.207 210.789V200.684C277.207 199.741 276.87 198.955 276.197 198.326C275.568 197.653 274.782 197.316 273.839 197.316H267.103C265.711 197.316 264.387 197.046 263.129 196.507C261.917 195.968 260.862 195.25 259.964 194.352C259.066 193.453 258.347 192.398 257.808 191.185C257.269 189.928 257 188.603 257 187.211V177.105C257 175.713 257.269 174.411 257.808 173.198C258.347 171.94 259.066 170.862 259.964 169.964C260.862 169.066 261.917 168.347 263.129 167.808C264.387 167.269 265.711 167 267.103 167H283.943L282.057 170.705C281.608 171.604 280.934 172.345 280.036 172.928C279.183 173.467 278.24 173.737 277.207 173.737H267.103C266.16 173.737 265.352 174.074 264.679 174.747C264.05 175.376 263.736 176.162 263.736 177.105V187.211C263.736 188.154 264.05 188.962 264.679 189.636C265.352 190.265 266.16 190.579 267.103 190.579H273.839C275.231 190.579 276.533 190.848 277.746 191.387C279.003 191.926 280.081 192.645 280.979 193.543C281.877 194.441 282.595 195.519 283.134 196.777C283.673 197.989 283.943 199.292 283.943 200.684V210.789C283.943 212.182 283.673 213.507 283.134 214.764C282.595 215.977 281.877 217.032 280.979 217.931C280.081 218.829 279.003 219.547 277.746 220.086C276.533 220.625 275.231 220.895 273.839 220.895H257L258.886 217.122Z" fill="url(#paint8_linear_27_463)"/>
<path d="M333.113 220.895H326.377C324.985 220.895 323.66 220.625 322.403 220.086C321.191 219.547 320.135 218.829 319.237 217.931C318.339 217.032 317.621 215.977 317.082 214.764C316.543 213.507 316.274 212.182 316.274 210.789V177.105C316.274 175.713 316.543 174.411 317.082 173.198C317.621 171.94 318.339 170.862 319.237 169.964C320.135 169.066 321.191 168.347 322.403 167.808C323.66 167.269 324.985 167 326.377 167H333.113C334.505 167 335.807 167.269 337.019 167.808C338.277 168.347 339.354 169.066 340.252 169.964C341.15 170.862 341.869 171.94 342.408 173.198C342.947 174.411 343.216 175.713 343.216 177.105V210.789C343.216 212.182 342.947 213.507 342.408 214.764C341.869 215.977 341.15 217.032 340.252 217.931C339.354 218.829 338.277 219.547 337.019 220.086C335.807 220.625 334.505 220.895 333.113 220.895ZM326.377 173.737C325.434 173.737 324.626 174.074 323.952 174.747C323.323 175.376 323.009 176.162 323.009 177.105V210.789C323.009 211.733 323.323 212.541 323.952 213.215C324.626 213.844 325.434 214.158 326.377 214.158H333.113C334.056 214.158 334.841 213.844 335.47 213.215C336.144 212.541 336.48 211.733 336.48 210.789V177.105C336.48 176.162 336.144 175.376 335.47 174.747C334.841 174.074 334.056 173.737 333.113 173.737H326.377Z" fill="url(#paint9_linear_27_463)"/>
<path d="M400.604 217.863C400.155 218.761 399.481 219.502 398.583 220.086C397.73 220.625 396.787 220.895 395.754 220.895H375.547V173.737C375.547 172.704 375.816 171.761 376.355 170.907C376.939 170.009 377.68 169.335 378.578 168.886L382.283 167V214.158H402.49L400.604 217.863Z" fill="url(#paint10_linear_27_463)"/>
<path d="M434.821 173.737C434.821 172.704 435.09 171.761 435.629 170.907C436.213 170.009 436.954 169.335 437.852 168.886L441.556 167V210.789C441.556 211.733 441.871 212.541 442.499 213.215C443.173 213.844 443.981 214.158 444.924 214.158H451.66C452.603 214.158 453.388 213.844 454.017 213.215C454.691 212.541 455.027 211.733 455.027 210.789V173.737C455.027 172.704 455.297 171.761 455.836 170.907C456.42 170.009 457.16 169.335 458.059 168.886L461.763 167V210.789C461.763 212.182 461.494 213.507 460.955 214.764C460.416 215.977 459.697 217.032 458.799 217.931C457.901 218.829 456.824 219.547 455.566 220.086C454.354 220.625 453.052 220.895 451.66 220.895H444.924C443.532 220.895 442.207 220.625 440.95 220.086C439.738 219.547 438.682 218.829 437.784 217.931C436.886 217.032 436.168 215.977 435.629 214.764C435.09 213.507 434.821 212.182 434.821 210.789V173.737Z" fill="url(#paint11_linear_27_463)"/>
<path d="M521.037 167L519.151 170.705C518.702 171.604 518.028 172.345 517.13 172.928C516.277 173.467 515.334 173.737 514.301 173.737H510.933V220.895H504.198V173.737H494.094L495.98 169.964C496.429 169.066 497.08 168.347 497.933 167.808C498.832 167.269 499.797 167 500.83 167H521.037Z" fill="url(#paint12_linear_27_463)"/>
<path d="M554.041 173.737C554.041 172.704 554.311 171.761 554.849 170.907C555.433 170.009 556.174 169.335 557.072 168.886L560.777 167V220.895H554.041V173.737Z" fill="url(#paint13_linear_27_463)"/>
<path d="M610.602 220.895H603.866C602.474 220.895 601.15 220.625 599.892 220.086C598.68 219.547 597.625 218.829 596.727 217.931C595.829 217.032 595.11 215.977 594.571 214.764C594.032 213.507 593.763 212.182 593.763 210.789V177.105C593.763 175.713 594.032 174.411 594.571 173.198C595.11 171.94 595.829 170.862 596.727 169.964C597.625 169.066 598.68 168.347 599.892 167.808C601.15 167.269 602.474 167 603.866 167H610.602C611.994 167 613.296 167.269 614.509 167.808C615.766 168.347 616.844 169.066 617.742 169.964C618.64 170.862 619.358 171.94 619.897 173.198C620.436 174.411 620.706 175.713 620.706 177.105V210.789C620.706 212.182 620.436 213.507 619.897 214.764C619.358 215.977 618.64 217.032 617.742 217.931C616.844 218.829 615.766 219.547 614.509 220.086C613.296 220.625 611.994 220.895 610.602 220.895ZM603.866 173.737C602.923 173.737 602.115 174.074 601.442 174.747C600.813 175.376 600.499 176.162 600.499 177.105V210.789C600.499 211.733 600.813 212.541 601.442 213.215C602.115 213.844 602.923 214.158 603.866 214.158H610.602C611.545 214.158 612.331 213.844 612.96 213.215C613.633 212.541 613.97 211.733 613.97 210.789V177.105C613.97 176.162 613.633 175.376 612.96 174.747C612.331 174.074 611.545 173.737 610.602 173.737H603.866Z" fill="url(#paint14_linear_27_463)"/>
<path d="M659.772 184.987V220.895H653.037V167H656.404C657.437 167 658.358 167.292 659.166 167.876C660.019 168.46 660.625 169.223 660.985 170.166L673.243 202.907V173.737C673.243 172.704 673.513 171.761 674.052 170.907C674.635 170.009 675.376 169.335 676.274 168.886L679.979 167V220.895H676.611C675.578 220.895 674.658 220.603 673.85 220.019C673.041 219.435 672.458 218.672 672.098 217.728L659.772 184.987Z" fill="url(#paint15_linear_27_463)"/>
<path d="M714.196 217.122C714.645 216.224 715.296 215.505 716.149 214.966C717.047 214.427 718.013 214.158 719.046 214.158H729.149C730.092 214.158 730.878 213.844 731.507 213.215C732.18 212.541 732.517 211.733 732.517 210.789V200.684C732.517 199.741 732.18 198.955 731.507 198.326C730.878 197.653 730.092 197.316 729.149 197.316H722.414C721.021 197.316 719.697 197.046 718.44 196.507C717.227 195.968 716.172 195.25 715.274 194.352C714.376 193.453 713.657 192.398 713.118 191.185C712.58 189.928 712.31 188.603 712.31 187.211V177.105C712.31 175.713 712.58 174.411 713.118 173.198C713.657 171.94 714.376 170.862 715.274 169.964C716.172 169.066 717.227 168.347 718.44 167.808C719.697 167.269 721.021 167 722.414 167H739.253L737.367 170.705C736.918 171.604 736.244 172.345 735.346 172.928C734.493 173.467 733.55 173.737 732.517 173.737H722.414C721.471 173.737 720.662 174.074 719.989 174.747C719.36 175.376 719.046 176.162 719.046 177.105V187.211C719.046 188.154 719.36 188.962 719.989 189.636C720.662 190.265 721.471 190.579 722.414 190.579H729.149C730.541 190.579 731.843 190.848 733.056 191.387C734.313 191.926 735.391 192.645 736.289 193.543C737.187 194.441 737.906 195.519 738.444 196.777C738.983 197.989 739.253 199.292 739.253 200.684V210.789C739.253 212.182 738.983 213.507 738.444 214.764C737.906 215.977 737.187 217.032 736.289 217.931C735.391 218.829 734.313 219.547 733.056 220.086C731.843 220.625 730.541 220.895 729.149 220.895H712.31L714.196 217.122Z" fill="url(#paint16_linear_27_463)"/>
<defs>
<linearGradient id="paint0_linear_27_463" x1="128.5" y1="39" x2="128.5" y2="221" gradientUnits="userSpaceOnUse">
<stop/>
<stop offset="1" stop-color="#666666"/>
</linearGradient>
<linearGradient id="paint1_linear_27_463" x1="128.5" y1="39" x2="128.5" y2="221" gradientUnits="userSpaceOnUse">
<stop stop-color="#00156F"/>
<stop offset="1" stop-color="#B8BFDC"/>
</linearGradient>
<linearGradient id="paint2_linear_27_463" x1="128.5" y1="39" x2="128.5" y2="221" gradientUnits="userSpaceOnUse">
<stop stop-color="#00156F"/>
<stop offset="1" stop-color="#B8BFDC"/>
</linearGradient>
<linearGradient id="paint3_linear_27_463" x1="508.191" y1="39" x2="508.191" y2="220.895" gradientUnits="userSpaceOnUse">
<stop/>
<stop offset="1" stop-color="#2E2E2E"/>
</linearGradient>
<linearGradient id="paint4_linear_27_463" x1="508.191" y1="39" x2="508.191" y2="220.895" gradientUnits="userSpaceOnUse">
<stop/>
<stop offset="1" stop-color="#2E2E2E"/>
</linearGradient>
<linearGradient id="paint5_linear_27_463" x1="508.191" y1="39" x2="508.191" y2="220.895" gradientUnits="userSpaceOnUse">
<stop/>
<stop offset="1" stop-color="#2E2E2E"/>
</linearGradient>
<linearGradient id="paint6_linear_27_463" x1="508.191" y1="39" x2="508.191" y2="220.895" gradientUnits="userSpaceOnUse">
<stop/>
<stop offset="1" stop-color="#2E2E2E"/>
</linearGradient>
<linearGradient id="paint7_linear_27_463" x1="508.191" y1="39" x2="508.191" y2="220.895" gradientUnits="userSpaceOnUse">
<stop/>
<stop offset="1" stop-color="#2E2E2E"/>
</linearGradient>
<linearGradient id="paint8_linear_27_463" x1="508.191" y1="39" x2="508.191" y2="220.895" gradientUnits="userSpaceOnUse">
<stop/>
<stop offset="1" stop-color="#2E2E2E"/>
</linearGradient>
<linearGradient id="paint9_linear_27_463" x1="508.191" y1="39" x2="508.191" y2="220.895" gradientUnits="userSpaceOnUse">
<stop/>
<stop offset="1" stop-color="#2E2E2E"/>
</linearGradient>
<linearGradient id="paint10_linear_27_463" x1="508.191" y1="39" x2="508.191" y2="220.895" gradientUnits="userSpaceOnUse">
<stop/>
<stop offset="1" stop-color="#2E2E2E"/>
</linearGradient>
<linearGradient id="paint11_linear_27_463" x1="508.191" y1="39" x2="508.191" y2="220.895" gradientUnits="userSpaceOnUse">
<stop/>
<stop offset="1" stop-color="#2E2E2E"/>
</linearGradient>
<linearGradient id="paint12_linear_27_463" x1="508.191" y1="39" x2="508.191" y2="220.895" gradientUnits="userSpaceOnUse">
<stop/>
<stop offset="1" stop-color="#2E2E2E"/>
</linearGradient>
<linearGradient id="paint13_linear_27_463" x1="508.191" y1="39" x2="508.191" y2="220.895" gradientUnits="userSpaceOnUse">
<stop/>
<stop offset="1" stop-color="#2E2E2E"/>
</linearGradient>
<linearGradient id="paint14_linear_27_463" x1="508.191" y1="39" x2="508.191" y2="220.895" gradientUnits="userSpaceOnUse">
<stop/>
<stop offset="1" stop-color="#2E2E2E"/>
</linearGradient>
<linearGradient id="paint15_linear_27_463" x1="508.191" y1="39" x2="508.191" y2="220.895" gradientUnits="userSpaceOnUse">
<stop/>
<stop offset="1" stop-color="#2E2E2E"/>
</linearGradient>
<linearGradient id="paint16_linear_27_463" x1="508.191" y1="39" x2="508.191" y2="220.895" gradientUnits="userSpaceOnUse">
<stop/>
<stop offset="1" stop-color="#2E2E2E"/>
</linearGradient>
</defs>
</svg>
