<svg width="856" height="328" viewBox="0 0 856 328" fill="none" xmlns="http://www.w3.org/2000/svg">
<rect width="856" height="328" fill="white"/>
<path d="M363.385 78.1053V192.632H349.072V142.526H320.446V192.632H306.133V92.421C306.133 90.226 306.705 88.2217 307.85 86.4084C309.091 84.4996 310.665 83.0681 312.574 82.1137L320.446 78.1053V128.211H349.072V92.421C349.072 90.226 349.645 88.2217 350.79 86.4084C352.03 84.4996 353.605 83.0681 355.513 82.1137L363.385 78.1053Z" fill="black"/>
<path d="M410.619 128.211H432.089C434.093 128.211 435.763 127.542 437.099 126.206C438.53 124.775 439.246 123.057 439.246 121.053V99.5789C439.246 97.5747 438.53 95.9046 437.099 94.5684C435.763 93.1368 434.093 92.421 432.089 92.421H410.619V128.211ZM453.559 121.053C453.559 123.82 453.082 126.445 452.127 128.926C451.173 131.312 449.837 133.46 448.12 135.368C449.837 137.277 451.173 139.472 452.127 141.954C453.082 144.34 453.559 146.916 453.559 149.684V192.632H439.246V149.684C439.246 147.68 438.53 146.01 437.099 144.674C435.763 143.242 434.093 142.526 432.089 142.526H410.619V192.632H396.306V78.1053H432.089C435.047 78.1053 437.814 78.6779 440.391 79.8232C443.062 80.9684 445.352 82.4954 447.261 84.4042C449.169 86.313 450.696 88.6035 451.841 91.2758C452.986 93.8526 453.559 96.6203 453.559 99.5789V121.053Z" fill="black"/>
<path d="M601.243 143.385C600.289 145.294 598.858 146.821 596.949 147.966C595.136 149.112 593.18 149.684 591.081 149.684H547.998L552.006 141.667C552.96 139.759 554.343 138.232 556.156 137.086C558.065 135.941 560.116 135.368 562.311 135.368H605.251L601.243 143.385Z" fill="black"/>
<path d="M701.121 92.421C701.121 90.226 701.694 88.2217 702.839 86.4084C704.079 84.4996 705.654 83.0681 707.562 82.1137L715.435 78.1053V192.632H701.121V92.421Z" fill="black"/>
<path d="M807 78.1053L802.992 85.9789C802.038 87.8877 800.607 89.4625 798.698 90.7032C796.885 91.8484 794.881 92.421 792.687 92.421H785.53V192.632H771.217V92.421H749.747L753.755 84.4042C754.709 82.4954 756.093 80.9684 757.906 79.8232C759.814 78.6779 761.866 78.1053 764.06 78.1053H807Z" fill="black"/>
<path d="M306.503 256.227C306.952 255.329 307.603 254.611 308.456 254.072C309.355 253.533 310.32 253.263 311.353 253.263H321.456C322.399 253.263 323.185 252.949 323.814 252.32C324.487 251.646 324.824 250.838 324.824 249.895V239.789C324.824 238.846 324.487 238.06 323.814 237.432C323.185 236.758 322.399 236.421 321.456 236.421H314.721C313.329 236.421 312.004 236.152 310.747 235.613C309.534 235.074 308.479 234.355 307.581 233.457C306.683 232.559 305.964 231.503 305.425 230.291C304.887 229.033 304.617 227.708 304.617 226.316V216.211C304.617 214.818 304.887 213.516 305.425 212.303C305.964 211.046 306.683 209.968 307.581 209.069C308.479 208.171 309.534 207.453 310.747 206.914C312.004 206.375 313.329 206.105 314.721 206.105H331.56L329.674 209.811C329.225 210.709 328.551 211.45 327.653 212.034C326.8 212.573 325.857 212.842 324.824 212.842H314.721C313.778 212.842 312.969 213.179 312.296 213.853C311.667 214.481 311.353 215.267 311.353 216.211V226.316C311.353 227.259 311.667 228.067 312.296 228.741C312.969 229.37 313.778 229.684 314.721 229.684H321.456C322.848 229.684 324.15 229.954 325.363 230.493C326.62 231.032 327.698 231.75 328.596 232.648C329.494 233.547 330.213 234.625 330.751 235.882C331.29 237.095 331.56 238.397 331.56 239.789V249.895C331.56 251.287 331.29 252.612 330.751 253.869C330.213 255.082 329.494 256.138 328.596 257.036C327.698 257.934 326.62 258.653 325.363 259.192C324.15 259.731 322.848 260 321.456 260H304.617L306.503 256.227Z" fill="black"/>
<path d="M380.73 260H373.994C372.602 260 371.277 259.731 370.02 259.192C368.808 258.653 367.752 257.934 366.854 257.036C365.956 256.138 365.238 255.082 364.699 253.869C364.16 252.612 363.891 251.287 363.891 249.895V216.211C363.891 214.818 364.16 213.516 364.699 212.303C365.238 211.046 365.956 209.968 366.854 209.069C367.752 208.171 368.808 207.453 370.02 206.914C371.277 206.375 372.602 206.105 373.994 206.105H380.73C382.122 206.105 383.424 206.375 384.636 206.914C385.894 207.453 386.971 208.171 387.87 209.069C388.768 209.968 389.486 211.046 390.025 212.303C390.564 213.516 390.833 214.818 390.833 216.211V249.895C390.833 251.287 390.564 252.612 390.025 253.869C389.486 255.082 388.768 256.138 387.87 257.036C386.971 257.934 385.894 258.653 384.636 259.192C383.424 259.731 382.122 260 380.73 260ZM373.994 212.842C373.051 212.842 372.243 213.179 371.569 213.853C370.941 214.481 370.626 215.267 370.626 216.211V249.895C370.626 250.838 370.941 251.646 371.569 252.32C372.243 252.949 373.051 253.263 373.994 253.263H380.73C381.673 253.263 382.459 252.949 383.087 252.32C383.761 251.646 384.098 250.838 384.098 249.895V216.211C384.098 215.267 383.761 214.481 383.087 213.853C382.459 213.179 381.673 212.842 380.73 212.842H373.994Z" fill="black"/>
<path d="M448.221 256.968C447.772 257.867 447.098 258.608 446.2 259.192C445.347 259.731 444.404 260 443.371 260H423.164V212.842C423.164 211.809 423.434 210.866 423.972 210.013C424.556 209.114 425.297 208.441 426.195 207.992L429.9 206.105V253.263H450.107L448.221 256.968Z" fill="black"/>
<path d="M482.438 212.842C482.438 211.809 482.707 210.866 483.246 210.013C483.83 209.114 484.571 208.441 485.469 207.992L489.173 206.105V249.895C489.173 250.838 489.488 251.646 490.116 252.32C490.79 252.949 491.598 253.263 492.541 253.263H499.277C500.22 253.263 501.006 252.949 501.634 252.32C502.308 251.646 502.645 250.838 502.645 249.895V212.842C502.645 211.809 502.914 210.866 503.453 210.013C504.037 209.114 504.778 208.441 505.676 207.992L509.38 206.105V249.895C509.38 251.287 509.111 252.612 508.572 253.869C508.033 255.082 507.315 256.138 506.417 257.036C505.518 257.934 504.441 258.653 503.183 259.192C501.971 259.731 500.669 260 499.277 260H492.541C491.149 260 489.824 259.731 488.567 259.192C487.355 258.653 486.3 257.934 485.401 257.036C484.503 256.138 483.785 255.082 483.246 253.869C482.707 252.612 482.438 251.287 482.438 249.895V212.842Z" fill="black"/>
<path d="M568.654 206.105L566.768 209.811C566.319 210.709 565.645 211.45 564.747 212.034C563.894 212.573 562.951 212.842 561.918 212.842H558.55V260H551.815V212.842H541.711L543.597 209.069C544.046 208.171 544.697 207.453 545.551 206.914C546.449 206.375 547.414 206.105 548.447 206.105H568.654Z" fill="black"/>
<path d="M601.658 212.842C601.658 211.809 601.928 210.866 602.467 210.013C603.05 209.114 603.791 208.441 604.689 207.992L608.394 206.105V260H601.658V212.842Z" fill="black"/>
<path d="M658.219 260H651.484C650.092 260 648.767 259.731 647.51 259.192C646.297 258.653 645.242 257.934 644.344 257.036C643.446 256.138 642.727 255.082 642.188 253.869C641.65 252.612 641.38 251.287 641.38 249.895V216.211C641.38 214.818 641.65 213.516 642.188 212.303C642.727 211.046 643.446 209.968 644.344 209.069C645.242 208.171 646.297 207.453 647.51 206.914C648.767 206.375 650.092 206.105 651.484 206.105H658.219C659.611 206.105 660.914 206.375 662.126 206.914C663.383 207.453 664.461 208.171 665.359 209.069C666.257 209.968 666.976 211.046 667.514 212.303C668.053 213.516 668.323 214.818 668.323 216.211V249.895C668.323 251.287 668.053 252.612 667.514 253.869C666.976 255.082 666.257 256.138 665.359 257.036C664.461 257.934 663.383 258.653 662.126 259.192C660.914 259.731 659.611 260 658.219 260ZM651.484 212.842C650.541 212.842 649.732 213.179 649.059 213.853C648.43 214.481 648.116 215.267 648.116 216.211V249.895C648.116 250.838 648.43 251.646 649.059 252.32C649.732 252.949 650.541 253.263 651.484 253.263H658.219C659.162 253.263 659.948 252.949 660.577 252.32C661.25 251.646 661.587 250.838 661.587 249.895V216.211C661.587 215.267 661.25 214.481 660.577 213.853C659.948 213.179 659.162 212.842 658.219 212.842H651.484Z" fill="black"/>
<path d="M707.389 224.093V260H700.654V206.105H704.021C705.054 206.105 705.975 206.397 706.783 206.981C707.636 207.565 708.242 208.328 708.602 209.272L720.861 242.013V212.842C720.861 211.809 721.13 210.866 721.669 210.013C722.253 209.114 722.994 208.441 723.892 207.992L727.596 206.105V260H724.228C723.196 260 722.275 259.708 721.467 259.124C720.659 258.54 720.075 257.777 719.716 256.834L707.389 224.093Z" fill="black"/>
<path d="M761.813 256.227C762.262 255.329 762.913 254.611 763.767 254.072C764.665 253.533 765.63 253.263 766.663 253.263H776.766C777.709 253.263 778.495 252.949 779.124 252.32C779.797 251.646 780.134 250.838 780.134 249.895V239.789C780.134 238.846 779.797 238.06 779.124 237.432C778.495 236.758 777.709 236.421 776.766 236.421H770.031C768.639 236.421 767.314 236.152 766.057 235.613C764.844 235.074 763.789 234.355 762.891 233.457C761.993 232.559 761.274 231.503 760.736 230.291C760.197 229.033 759.927 227.708 759.927 226.316V216.211C759.927 214.818 760.197 213.516 760.736 212.303C761.274 211.046 761.993 209.968 762.891 209.069C763.789 208.171 764.844 207.453 766.057 206.914C767.314 206.375 768.639 206.105 770.031 206.105H786.87L784.984 209.811C784.535 210.709 783.861 211.45 782.963 212.034C782.11 212.573 781.167 212.842 780.134 212.842H770.031C769.088 212.842 768.279 213.179 767.606 213.853C766.977 214.481 766.663 215.267 766.663 216.211V226.316C766.663 227.259 766.977 228.067 767.606 228.741C768.279 229.37 769.088 229.684 770.031 229.684H776.766C778.158 229.684 779.461 229.954 780.673 230.493C781.93 231.032 783.008 231.75 783.906 232.648C784.804 233.547 785.523 234.625 786.062 235.882C786.6 237.095 786.87 238.397 786.87 239.789V249.895C786.87 251.287 786.6 252.612 786.062 253.869C785.523 255.082 784.804 256.138 783.906 257.036C783.008 257.934 781.93 258.653 780.673 259.192C779.461 259.731 778.158 260 776.766 260H759.927L761.813 256.227Z" fill="black"/>
<path d="M52.3678 69.6842C52.3678 68.754 53.1217 68 54.0517 68H101.201C102.131 68 102.885 68.754 102.885 69.6842V121.012C83.7012 127.925 67.2568 140.575 55.6215 156.892C54.6403 158.268 52.3678 157.592 52.3678 155.902V69.6842Z" fill="black"/>
<path d="M51.5735 202.063C49.89 209.314 49 216.869 49 224.632V253.263C49 254.193 49.7539 254.947 50.6839 254.947H101.196C102.175 254.947 102.944 254.116 102.911 253.138C102.894 252.62 102.885 252.101 102.885 251.579V219.579C102.885 213.371 104.129 207.454 106.38 202.063H51.5735Z" fill="black"/>
<path d="M56.1368 187.579H116.048C124.287 179.259 135.717 174.105 148.351 174.105C160.984 174.105 172.414 179.259 180.653 187.579H240.564C225.878 151.051 190.126 125.263 148.351 125.263C106.576 125.263 70.8226 151.051 56.1368 187.579Z" fill="black"/>
<path d="M245.128 202.063H190.321C192.572 207.454 193.816 213.371 193.816 219.579V251.579C193.816 252.101 193.807 252.621 193.79 253.138C193.757 254.116 194.526 254.947 195.505 254.947H246.017C246.947 254.947 247.701 254.193 247.701 253.263V224.632C247.701 216.869 246.811 209.314 245.128 202.063Z" fill="black"/>
<path d="M193.693 69.6842C193.693 68.754 194.447 68 195.377 68H242.527C243.457 68 244.21 68.754 244.21 69.6842V155.902C244.21 157.592 241.938 158.268 240.957 156.892C229.321 140.575 212.877 127.925 193.693 121.012V69.6842Z" fill="black"/>
</svg>
